<svg xmlns="http://www.w3.org/2000/svg" viewBox="0 0 157 70"><defs><style>.cls-1{fill:#e57eb1;}.cls-2{fill:#701c74;}.cls-3{fill:#ba94dd;}</style></defs><g id="Layer_2" data-name="Layer 2"><g id="Layer_1-2" data-name="Layer 1"><path class="cls-1" d="M21.61,13.21A6.6,6.6,0,0,1,25,12.64a1.45,1.45,0,0,1,1,.72,1.81,1.81,0,0,1,0,1.31,10.66,10.66,0,0,1-.77,1.61c-1,1.89-2,3.8-3.1,5.67C20.07,25.72,17.8,29.38,15.5,33A166.06,166.06,0,0,1,0,53.79,162.41,162.41,0,0,1,12.45,31.05c2.36-3.6,4.76-7.18,7.34-10.65q1.92-2.61,4-5.14c.35-.45.75-.85.93-1.13s.32-.2-.05-.5a7.84,7.84,0,0,0-3-.42"/><path class="cls-2" d="M18.39.12A10,10,0,0,1,19.91.6c1.3.49,2.68,1.26,3.05,2.71s.45,5.84-1.27,6.79-4-1.27-4.94-2.41a7.64,7.64,0,0,1-1.81-5.62A2.19,2.19,0,0,1,15.85.4,3.34,3.34,0,0,1,18.39.12Z"/><path class="cls-2" d="M18.77,52.38S13.61,66.09,13,70c0,0,.24-12.37,1.37-16.3Z"/><path class="cls-2" d="M10.47,55.79,13.63,54a46.82,46.82,0,0,0-1.12,9s-2.39-5.24-2-7.19"/><path class="cls-2" d="M19,11.29s-6.48-3-8.32-1.69,4.68,13.49,4.68,13.49l.16,0s-5-11.7,3.48-11.82"/><path class="cls-3" d="M19.86,27.88S31.1,47.43,16.6,51.16L.77,55.35S27.15,43.13,19.86,27.88"/><polygon class="cls-2" points="31.27 26.78 37.86 26.78 37.86 43.77 40.19 43.77 40.19 26.78 46.79 26.78 46.79 24.61 31.27 24.61 31.27 26.78"/><path class="cls-2" d="M55.13,29.77A5.85,5.85,0,0,0,51,31.43V24.58H48.81V43.77H51V36.24a4.08,4.08,0,0,1,4.13-4.31c2.44,0,3.68,1.34,3.68,4v7.85H61V35.92C61,32.07,58.81,29.77,55.13,29.77Z"/><path class="cls-2" d="M70.05,29.75a6.9,6.9,0,0,0-7,7.11,6.74,6.74,0,0,0,7,7.09A7.48,7.48,0,0,0,76,41.29l.28-.36-1.64-1.31-.29.38a5.57,5.57,0,0,1-4.27,1.78,4.59,4.59,0,0,1-4.71-3.85H76.83l0-.42a7.11,7.11,0,0,0-1.55-5.66A6.93,6.93,0,0,0,70.05,29.75Zm0,2.1c2.79,0,4.53,1.49,4.73,4H65.34A4.65,4.65,0,0,1,70.05,31.85Z"/><path class="cls-2" d="M84.73,29.82a5.31,5.31,0,0,0-3.84,1.47l0-1.34H78.74V43.77h2.2v-8A3.8,3.8,0,0,1,84.73,32a3.68,3.68,0,0,1,2,.53l.41.26,1-1.86-.38-.23A5.37,5.37,0,0,0,84.73,29.82Z"/><path class="cls-2" d="M100.07,31.79a6.44,6.44,0,0,0-4.81-2,6.88,6.88,0,0,0-7,7.06,6.91,6.91,0,0,0,7,7.12,6.42,6.42,0,0,0,4.81-2v1.84h2.2V30h-2.2ZM95.26,32a4.72,4.72,0,0,1,4.92,4.93A5.08,5.08,0,0,1,99,40.27a4.76,4.76,0,0,1-3.69,1.53,4.71,4.71,0,0,1-4.8-4.94A4.7,4.7,0,0,1,95.26,32Z"/><path class="cls-2" d="M120,29.69a5.5,5.5,0,0,0-4.75,2.56,5.26,5.26,0,0,0-4.79-2.56,5.14,5.14,0,0,0-3.75,1.48l0-1.22h-2.12V43.77h2.2V35.66a3.67,3.67,0,1,1,7.34,0v8.11h2.21V35.66A3.6,3.6,0,0,1,120,31.82a3.51,3.51,0,0,1,3.66,3.76v8.19h2.2V35.58A5.63,5.63,0,0,0,120,29.69Z"/><path class="cls-2" d="M134.89,29.75a6.9,6.9,0,0,0-7,7.11,6.74,6.74,0,0,0,7,7.09,7.49,7.49,0,0,0,5.92-2.66l.28-.36-1.64-1.31-.29.38a5.57,5.57,0,0,1-4.27,1.78,4.59,4.59,0,0,1-4.71-3.85h11.49l0-.42a7.11,7.11,0,0,0-1.55-5.66A6.93,6.93,0,0,0,134.89,29.75Zm0,2.1c2.79,0,4.53,1.49,4.73,4h-9.44A4.64,4.64,0,0,1,134.89,31.85Z"/><polygon class="cls-2" points="149.91 36.63 154.32 30.75 154.41 30.57 154.41 29.95 152.18 29.95 148.58 34.9 144.98 29.95 143.21 29.95 142.75 30.01 142.75 30.62 147.24 36.63 142.47 42.98 142.38 43.15 142.38 43.77 144.59 43.77 148.58 38.33 154.79 46.74 156.54 46.74 157 46.69 157 46.07 149.91 36.63"/><path class="cls-2" d="M37.8,50h4.05v.79H38.61v2.54h3.24v.79H38.61v4H37.8Z"/><path class="cls-2" d="M46,52a2.94,2.94,0,0,1,2.29,1,3.12,3.12,0,0,1,.83,2.16,3.07,3.07,0,0,1-.88,2.19,3.14,3.14,0,0,1-4.48,0A3.21,3.21,0,0,1,43.66,53,3,3,0,0,1,46,52Zm0,.75a2.23,2.23,0,0,0-1.65.71,2.38,2.38,0,0,0-.68,1.72,2.45,2.45,0,0,0,.31,1.21,2.2,2.2,0,0,0,.85.86,2.35,2.35,0,0,0,1.17.31,2.32,2.32,0,0,0,1.17-.31,2.2,2.2,0,0,0,.85-.86,2.46,2.46,0,0,0,.32-1.21,2.39,2.39,0,0,0-.69-1.72A2.25,2.25,0,0,0,46,52.73Z"/><path class="cls-2" d="M50.2,52.14H51V53a2.74,2.74,0,0,1,.74-.77,1.47,1.47,0,0,1,.82-.26,1.46,1.46,0,0,1,.68.2l-.4.65a1,1,0,0,0-1.15.21,2,2,0,0,0-.54,1A8.88,8.88,0,0,0,51,56.09v2H50.2Z"/><path class="cls-2" d="M56,50h.83l1.65,5.83L60.77,50h.17l2.29,5.83L64.91,50h.82l-2.32,8.08h-.15L60.86,52l-2.44,6.11h-.15Z"/><path class="cls-2" d="M69.41,52a3,3,0,0,1,2.29,1,3.22,3.22,0,0,1,0,4.35,3.14,3.14,0,0,1-4.48,0,3.07,3.07,0,0,1-.88-2.19A3.1,3.1,0,0,1,67.12,53,3,3,0,0,1,69.41,52Zm0,.75a2.23,2.23,0,0,0-1.65.71,2.39,2.39,0,0,0-.69,1.72,2.46,2.46,0,0,0,.32,1.21,2.2,2.2,0,0,0,.85.86,2.32,2.32,0,0,0,1.17.31,2.35,2.35,0,0,0,1.17-.31,2.2,2.2,0,0,0,.85-.86,2.45,2.45,0,0,0,.31-1.21,2.39,2.39,0,0,0-.69-1.72A2.23,2.23,0,0,0,69.41,52.73Z"/><path class="cls-2" d="M73.94,52.14h.77v1a3.13,3.13,0,0,1,.82-.84A2.39,2.39,0,0,1,76.76,52a2.08,2.08,0,0,1,.82.17,1.93,1.93,0,0,1,.64.45,2.32,2.32,0,0,1,.43.82,2.79,2.79,0,0,1,1-1.07A2.2,2.2,0,0,1,80.85,52a2,2,0,0,1,1.09.31,1.87,1.87,0,0,1,.7.88,4.49,4.49,0,0,1,.23,1.68v3.26h-.78V54.85A4.27,4.27,0,0,0,82,53.53a1.21,1.21,0,0,0-.47-.58,1.36,1.36,0,0,0-.79-.22,1.72,1.72,0,0,0-1,.33,1.85,1.85,0,0,0-.67.88,5.3,5.3,0,0,0-.22,1.83v2.34H78V55.05a5.31,5.31,0,0,0-.13-1.47,1.26,1.26,0,0,0-.47-.62,1.4,1.4,0,0,0-.8-.23,1.74,1.74,0,0,0-1,.32,1.87,1.87,0,0,0-.69.87,4.59,4.59,0,0,0-.22,1.66v2.53h-.77Z"/><path class="cls-2" d="M89.52,56.13l.65.34a3.35,3.35,0,0,1-.74,1,3,3,0,0,1-.94.59,3.36,3.36,0,0,1-1.18.2,2.87,2.87,0,0,1-2.29-1,3.28,3.28,0,0,1-.82-2.17,3.19,3.19,0,0,1,.7-2A2.87,2.87,0,0,1,87.27,52a3,3,0,0,1,2.44,1.16,3.28,3.28,0,0,1,.66,2H85a2.45,2.45,0,0,0,.67,1.71,2.07,2.07,0,0,0,1.58.67,2.46,2.46,0,0,0,.89-.16,2.65,2.65,0,0,0,.74-.42A3.64,3.64,0,0,0,89.52,56.13Zm0-1.61a2.41,2.41,0,0,0-.45-1,2,2,0,0,0-.78-.6,2.36,2.36,0,0,0-1-.22,2.21,2.21,0,0,0-1.51.56,2.6,2.6,0,0,0-.7,1.24Z"/><path class="cls-2" d="M91.8,52.14h.77v1.07a3,3,0,0,1,1-.92A2.43,2.43,0,0,1,94.81,52a2.12,2.12,0,0,1,1.19.34,2,2,0,0,1,.76.92A4.72,4.72,0,0,1,97,55v3.07h-.77V55.26a6.68,6.68,0,0,0-.09-1.38,1.4,1.4,0,0,0-1.5-1.19,1.9,1.9,0,0,0-1.25.46,2.17,2.17,0,0,0-.72,1.14,7.52,7.52,0,0,0-.11,1.63v2.19H91.8Z"/><path class="cls-2" d="M99.42,56.63l.74.35L99,59.06l-.54-.23Z"/><path class="cls-2" d="M104.78,50h4v.79h-3.24v2.54h3.24v.79h-3.24v4h-.81Z"/><path class="cls-2" d="M112.93,52a2.94,2.94,0,0,1,2.29,1,3.12,3.12,0,0,1,.83,2.16,3.07,3.07,0,0,1-.88,2.19,3.14,3.14,0,0,1-4.48,0,3.21,3.21,0,0,1,0-4.34A3,3,0,0,1,112.93,52Zm0,.75a2.23,2.23,0,0,0-1.65.71,2.39,2.39,0,0,0-.69,1.72,2.46,2.46,0,0,0,.32,1.21,2.2,2.2,0,0,0,.85.86,2.36,2.36,0,0,0,2.34,0,2.2,2.2,0,0,0,.85-.86,2.46,2.46,0,0,0,.32-1.21,2.36,2.36,0,0,0-.7-1.72A2.21,2.21,0,0,0,112.93,52.73Z"/><path class="cls-2" d="M117.18,52.14H118V53a2.74,2.74,0,0,1,.74-.77,1.47,1.47,0,0,1,.82-.26,1.49,1.49,0,0,1,.68.2l-.4.65a1,1,0,0,0-1.15.21,2.08,2.08,0,0,0-.55,1,9.73,9.73,0,0,0-.14,2.06v2h-.78Z"/><path class="cls-2" d="M123.18,50h.8v3.39h4.12V50h.8v8.08h-.8v-3.9H124v3.9h-.8Z"/><path class="cls-2" d="M135.77,56.13l.65.34a3.35,3.35,0,0,1-.74,1,3,3,0,0,1-.94.59,3.32,3.32,0,0,1-1.18.2,2.85,2.85,0,0,1-2.28-1,3.24,3.24,0,0,1-.83-2.17,3.19,3.19,0,0,1,.7-2A2.87,2.87,0,0,1,133.52,52,3,3,0,0,1,136,53.14a3.28,3.28,0,0,1,.66,2h-5.38a2.45,2.45,0,0,0,.67,1.71,2.11,2.11,0,0,0,1.59.67,2.41,2.41,0,0,0,.88-.16,2.51,2.51,0,0,0,.74-.42A3.64,3.64,0,0,0,135.77,56.13Zm0-1.61a2.41,2.41,0,0,0-.45-1,2,2,0,0,0-.77-.6,2.43,2.43,0,0,0-1-.22,2.21,2.21,0,0,0-1.51.56,2.6,2.6,0,0,0-.7,1.24Z"/><path class="cls-2" d="M144,52.14v6h-.76v-1a3.3,3.3,0,0,1-1.08.88,3,3,0,0,1-3.48-.62,3.09,3.09,0,0,1-.9-2.24,3,3,0,0,1,.91-2.21,3,3,0,0,1,3.51-.61,3.17,3.17,0,0,1,1,.94V52.14Zm-3.07.58a2.36,2.36,0,0,0-1.19.32,2.27,2.27,0,0,0-.86.88,2.52,2.52,0,0,0-.32,1.21,2.48,2.48,0,0,0,1.19,2.11,2.34,2.34,0,0,0,1.17.32,2.45,2.45,0,0,0,1.2-.32,2.32,2.32,0,0,0,.87-.86,2.49,2.49,0,0,0,.3-1.23,2.38,2.38,0,0,0-.68-1.73A2.3,2.3,0,0,0,140.93,52.72Z"/><path class="cls-2" d="M145.61,49.83h.77v8.28h-.77Z"/><path class="cls-2" d="M148.65,49.92h.77v2.22h1.22v.66h-1.22v5.31h-.77V52.8H147.6v-.66h1.05Z"/><path class="cls-2" d="M151.79,49.83h.77v3.38a3.16,3.16,0,0,1,1-.92A2.4,2.4,0,0,1,154.8,52a2.12,2.12,0,0,1,1.19.34,2,2,0,0,1,.76.92A4.72,4.72,0,0,1,157,55v3.07h-.77V55.26a7.83,7.83,0,0,0-.08-1.38,1.61,1.61,0,0,0-.52-.89,1.54,1.54,0,0,0-1-.3,1.85,1.85,0,0,0-1.24.46,2.19,2.19,0,0,0-.73,1.14,8.25,8.25,0,0,0-.11,1.63v2.19h-.77Z"/></g></g></svg>